<svg
  id="Group_109"
  data-name="Group 109"
  xmlns="http://www.w3.org/2000/svg"
  width="79.751"
  height="20.686"
  viewBox="0 0 79.751 20.686"
>
  <g
    id="BECBRO_final_logo-01"
    data-name="BECBRO final logo-01"
    transform="translate(0)"
  >
    <g id="Group_103" data-name="Group 103" transform="translate(0)">
      <path
        id="Path_190"
        data-name="Path 190"
        d="M27.647,371.92a5.516,5.516,0,0,0-4-1.637,5.464,5.464,0,0,0-4.314,1.846V364.31h-3.07v16.58c0,1.2-.057,2.572-.111,3.454l-.021.346H18.9l.084-1.657a5.139,5.139,0,0,0,4.3,1.962c3.06,0,6.355-2.354,6.355-7.521A7.683,7.683,0,0,0,27.647,371.92Zm-1.1,5.636c0,2.986-1.439,4.841-3.758,4.841a3.444,3.444,0,0,1-3.349-2.611,4.189,4.189,0,0,1-.1-.813v-2.416a3.9,3.9,0,0,1,.107-.808l.025-.116a3.566,3.566,0,0,1,3.4-2.749C25.407,372.882,26.542,375.23,26.542,377.556Z"
        transform="translate(-16.13 -364.31)"
        fill="#fff"
      />
    </g>
    <g id="Group_104" data-name="Group 104" transform="translate(14.97 5.973)">
      <path
        id="Path_191"
        data-name="Path 191"
        d="M205.383,437.17c-3.9,0-6.633,3.117-6.633,7.579,0,4.318,2.723,7.106,6.938,7.106a11.168,11.168,0,0,0,4.609-.862l.247-.112-.571-2.389-.356.15a8.449,8.449,0,0,1-3.594.668,3.953,3.953,0,0,1-4.273-4.014h9.4l.046-.4a8.774,8.774,0,0,0,.072-1.062C211.268,440.759,209.726,437.17,205.383,437.17Zm-.194,2.405a2.811,2.811,0,0,1,2.1.791,3.959,3.959,0,0,1,.961,2.529h-6.428C202.081,441.515,203.018,439.575,205.188,439.575Z"
        transform="translate(-198.75 -437.17)"
        fill="#fff"
      />
    </g>
    <g id="Group_105" data-name="Group 105" transform="translate(28.89 6)">
      <path
        id="Path_192"
        data-name="Path 192"
        d="M379.259,448.762l.561,2.465-.224.116a9.363,9.363,0,0,1-4.014.815c-4.2,0-7.022-2.89-7.022-7.19a7.185,7.185,0,0,1,7.549-7.468,8.5,8.5,0,0,1,3.537.73l.243.12-.748,2.549-.359-.2a5.313,5.313,0,0,0-2.672-.6c-2.687,0-4.424,1.867-4.424,4.757,0,2.813,1.744,4.7,4.341,4.7a6.615,6.615,0,0,0,2.871-.639Z"
        transform="translate(-368.56 -437.5)"
        fill="#fff"
      />
    </g>
    <g id="Group_106" data-name="Group 106" transform="translate(42.179)">
      <path
        id="Path_193"
        data-name="Path 193"
        d="M542.175,371.92a5.836,5.836,0,0,0-8.312.209V364.31h-3.072v16.58c0,1.2-.057,2.572-.11,3.454l-.021.346h2.769l.084-1.657a5.136,5.136,0,0,0,4.3,1.962c3.062,0,6.356-2.354,6.356-7.521A7.691,7.691,0,0,0,542.175,371.92Zm-1.1,5.636c0,2.986-1.439,4.841-3.758,4.841a3.442,3.442,0,0,1-3.349-2.611,4.2,4.2,0,0,1-.1-.813v-2.416a3.932,3.932,0,0,1,.107-.81l.025-.115a3.566,3.566,0,0,1,3.4-2.749C539.937,372.882,541.072,375.23,541.072,377.556Z"
        transform="translate(-530.66 -364.31)"
        fill="#fff"
      />
    </g>
    <g id="Group_107" data-name="Group 107" transform="translate(57.986 5.973)">
      <path
        id="Path_194"
        data-name="Path 194"
        d="M730.918,437.325v2.968l-.4-.089a3.39,3.39,0,0,0-.763-.075c-1.5,0-2.635,1.1-2.957,2.871a6.531,6.531,0,0,0-.107,1.081v7.495h-3.07V442c0-1.74-.034-3.027-.112-4.173l-.023-.349H726.3l.057,1.807a4.165,4.165,0,0,1,3.544-2.112,3.011,3.011,0,0,1,.775.093Z"
        transform="translate(-723.49 -437.17)"
        fill="#fff"
      />
    </g>
    <g id="Group_108" data-name="Group 108" transform="translate(65.956 5.973)">
      <path
        id="Path_195"
        data-name="Path 195"
        d="M832.639,439.191a6.544,6.544,0,0,0-4.924-2.021,6.877,6.877,0,0,0-4.964,1.98,7.626,7.626,0,0,0-2.03,5.487c0,4.265,2.786,7.246,6.774,7.246a7.03,7.03,0,0,0,4.786-1.79,8.274,8.274,0,0,0,.359-10.9Zm-5.035,10.2c-2.178,0-3.759-2.035-3.759-4.841,0-2.437,1.18-4.9,3.814-4.9,2.927,0,3.7,3.166,3.7,4.841C831.362,447.336,829.781,449.395,827.6,449.395Z"
        transform="translate(-820.72 -437.17)"
        fill="#fff"
      />
    </g>
  </g>
</svg>
